<?xml version="1.0" encoding="UTF-8" standalone="no"?>
<!-- Created with Inkscape (http://www.inkscape.org/) -->

<svg
   width="86.650719mm"
   height="74.86972mm"
   viewBox="0 0 86.650719 74.86972"
   version="1.1"
   id="svg1"
   xml:space="preserve"
   sodipodi:docname="logo_spirulina.svg"
   inkscape:version="1.3 (0e150ed6c4, 2023-07-21)"
   xmlns:inkscape="http://www.inkscape.org/namespaces/inkscape"
   xmlns:sodipodi="http://sodipodi.sourceforge.net/DTD/sodipodi-0.dtd"
   xmlns="http://www.w3.org/2000/svg"
   xmlns:svg="http://www.w3.org/2000/svg"><sodipodi:namedview
     id="namedview1"
     pagecolor="#505050"
     bordercolor="#eeeeee"
     borderopacity="1"
     inkscape:showpageshadow="0"
     inkscape:pageopacity="0"
     inkscape:pagecheckerboard="0"
     inkscape:deskcolor="#505050"
     inkscape:document-units="mm"
     inkscape:zoom="1.4142136"
     inkscape:cx="5513.6651"
     inkscape:cy="587.25218"
     inkscape:window-width="1920"
     inkscape:window-height="974"
     inkscape:window-x="-11"
     inkscape:window-y="-11"
     inkscape:window-maximized="1"
     inkscape:current-layer="layer1"
     showgrid="false"
     showguides="true"><inkscape:grid
       id="grid118"
       units="mm"
       originx="-3981.7628"
       originy="4796.8769"
       spacingx="0.99999998"
       spacingy="1"
       empcolor="#0099e5"
       empopacity="0.30196078"
       color="#0099e5"
       opacity="0.14901961"
       empspacing="5"
       dotted="false"
       gridanglex="30"
       gridanglez="30"
       visible="false" /><sodipodi:guide
       position="188.76072,-251.13397"
       orientation="0,-1"
       id="guide420"
       inkscape:locked="false" /></sodipodi:namedview><defs
     id="defs1"><marker
       style="overflow:visible"
       id="Dot"
       refX="0"
       refY="0"
       orient="0"
       inkscape:stockid="Dot"
       markerWidth="1"
       markerHeight="1"
       viewBox="0 0 1 1"
       inkscape:isstock="true"
       inkscape:collect="always"
       preserveAspectRatio="xMidYMid"
       markerUnits="userSpaceOnUse"><path
         transform="scale(0.5)"
         style="fill:context-stroke;fill-rule:evenodd;stroke:none"
         d="M 5,0 C 5,2.76 2.76,5 0,5 -2.76,5 -5,2.76 -5,0 c 0,-2.76 2.3,-5 5,-5 2.76,0 5,2.24 5,5 z"
         sodipodi:nodetypes="sssss"
         id="path466" /></marker></defs><g
     inkscape:label="Layer 1"
     inkscape:groupmode="layer"
     id="layer1"
     transform="translate(-1053.5081,1269.1737)"><g
       id="g530"
       transform="rotate(-40.295923,-87.512848,-672.72429)"><path
         style="fill:none;stroke:#00c958;stroke-width:5.065;stroke-linecap:butt;stroke-linejoin:miter;stroke-dasharray:none;stroke-opacity:1;marker-start:url(#Dot);marker-end:url(#Dot)"
         d="m 1231.0126,-333.30637 c 0,0 -16.875,-15.8542 -26.0735,-12.8201 -8.4009,2.7709 -3.5629,21.4506 -12.1515,23.5707 -10.7805,2.6612 -16.3594,-21.0275 -27.2923,-19.0837 -9.8337,1.7484 -7.2578,22.9415 -17.1118,24.5719 -9.6088,1.5898 -23.5286,-17.3071 -23.5286,-17.3071"
         id="path529"
         sodipodi:nodetypes="caaaac" /><path
         style="fill:none;stroke:#00a955;stroke-width:2.95;stroke-linecap:butt;stroke-linejoin:miter;stroke-dasharray:1.475, 1.475;stroke-dashoffset:0;stroke-opacity:1"
         d="m 1231.0126,-333.30637 c 0,0 -16.875,-15.8542 -26.0735,-12.8201 -8.4009,2.7709 -3.5629,21.4506 -12.1515,23.5707 -10.7805,2.6612 -16.3594,-21.0275 -27.2923,-19.0837 -9.8337,1.7484 -7.2578,22.9415 -17.1118,24.5719 -9.6088,1.5898 -23.5286,-17.3071 -23.5286,-17.3071"
         id="path530"
         sodipodi:nodetypes="caaaac" /></g></g></svg>
