<?xml version="1.0" encoding="UTF-8" standalone="no"?>
<!-- Created with Inkscape (http://www.inkscape.org/) -->

<svg
   width="129.39772mm"
   height="109.16543mm"
   viewBox="0 0 129.39772 109.16543"
   version="1.1"
   id="svg1"
   xml:space="preserve"
   sodipodi:docname="logo_spirulina.svg"
   inkscape:version="1.3 (0e150ed6c4, 2023-07-21)"
   xmlns:inkscape="http://www.inkscape.org/namespaces/inkscape"
   xmlns:sodipodi="http://sodipodi.sourceforge.net/DTD/sodipodi-0.dtd"
   xmlns="http://www.w3.org/2000/svg"
   xmlns:svg="http://www.w3.org/2000/svg"><sodipodi:namedview
     id="namedview1"
     pagecolor="#505050"
     bordercolor="#eeeeee"
     borderopacity="1"
     inkscape:showpageshadow="0"
     inkscape:pageopacity="0"
     inkscape:pagecheckerboard="0"
     inkscape:deskcolor="#505050"
     inkscape:document-units="mm"
     inkscape:zoom="1.4142136"
     inkscape:cx="5513.6651"
     inkscape:cy="587.25218"
     inkscape:window-width="1920"
     inkscape:window-height="974"
     inkscape:window-x="-11"
     inkscape:window-y="-11"
     inkscape:window-maximized="1"
     inkscape:current-layer="layer1"
     showgrid="false"
     showguides="true"><inkscape:grid
       id="grid118"
       units="mm"
       originx="-3200.9739"
       originy="4810.5329"
       spacingx="0.99999998"
       spacingy="1"
       empcolor="#0099e5"
       empopacity="0.30196078"
       color="#0099e5"
       opacity="0.14901961"
       empspacing="5"
       dotted="false"
       gridanglex="30"
       gridanglez="30"
       visible="false" /><sodipodi:guide
       position="395.34446,-254.74713"
       orientation="0,-1"
       id="guide420"
       inkscape:locked="false" /></sodipodi:namedview><defs
     id="defs1"><inkscape:path-effect
       effect="skeletal"
       id="path-effect543"
       is_visible="true"
       lpeversion="1"
       pattern="M 0,0 H 1"
       copytype="single_stretched"
       prop_scale="1"
       scale_y_rel="false"
       spacing="0"
       normal_offset="0"
       tang_offset="0"
       prop_units="false"
       vertical_pattern="false"
       hide_knot="false"
       fuse_tolerance="0" /><inkscape:path-effect
       effect="skeletal"
       id="path-effect539"
       is_visible="true"
       lpeversion="1"
       pattern="M 0,0 H 1"
       copytype="single_stretched"
       prop_scale="1"
       scale_y_rel="false"
       spacing="0"
       normal_offset="0"
       tang_offset="0"
       prop_units="false"
       vertical_pattern="false"
       hide_knot="false"
       fuse_tolerance="0" /><marker
       style="overflow:visible"
       id="Dot"
       refX="0"
       refY="0"
       orient="0"
       inkscape:stockid="Dot"
       markerWidth="1"
       markerHeight="1"
       viewBox="0 0 1 1"
       inkscape:isstock="true"
       inkscape:collect="always"
       preserveAspectRatio="xMidYMid"
       markerUnits="userSpaceOnUse"><path
         transform="scale(0.5)"
         style="fill:context-stroke;fill-rule:evenodd;stroke:none"
         d="M 5,0 C 5,2.76 2.76,5 0,5 -2.76,5 -5,2.76 -5,0 c 0,-2.76 2.3,-5 5,-5 2.76,0 5,2.24 5,5 z"
         sodipodi:nodetypes="sssss"
         id="path466" /></marker></defs><g
     inkscape:label="Layer 1"
     inkscape:groupmode="layer"
     id="layer1"
     transform="translate(-846.92434,1272.7868)"><g
       id="g519"
       transform="rotate(-11.751638,-3728.3797,118.87514)"><g
         id="g518"><path
           style="color:#000000;fill:#00c558;fill-opacity:0.937255;-inkscape-stroke:none"
           d="m 1127.2266,-292.46875 c -3.6194,0.5876 -11.1163,0.5234 -17.7696,1.74609 -3.3266,0.61135 -6.5222,1.52986 -9.1367,3.33789 -2.6145,1.80804 -4.5547,4.82709 -4.5547,8.47266 0,4.75168 -2.4103,7.67505 -6.2832,9.71484 -3.8729,2.03979 -9.2058,2.79058 -13.8222,2.2168 -4.2843,-0.5325 -7.6728,-0.0419 -10.3594,1.20899 -2.6867,1.25091 -4.5417,3.18273 -6.0137,5.03125 -2.9439,3.69703 -4.4414,6.79212 -8.5683,7.91211 -3.1448,0.85342 -6.9255,-0.23616 -11.5606,-1.27149 -4.6351,-1.03533 -10.2376,-1.80131 -16.0781,1.13477 l 2.4101,4.79297 c 4.3274,-2.17538 8.1692,-1.65834 12.4981,-0.69141 4.3289,0.96693 9.0339,2.59769 14.1367,1.21289 6.2625,-1.69954 8.8704,-6.62033 11.3594,-9.74609 1.2445,-1.56289 2.4376,-2.74415 4.082,-3.50977 1.6444,-0.76562 3.8698,-1.19491 7.4336,-0.75195 5.633,0.70012 11.8583,-0.0942 16.9824,-2.79297 5.1241,-2.69879 9.1485,-7.7087 9.1485,-14.46094 0,-1.98508 0.6744,-2.9758 2.2402,-4.05859 1.5658,-1.0828 4.1183,-1.93463 7.0566,-2.47461 5.8767,-1.07997 12.9827,-0.96946 17.6582,-1.72852 z"
           id="path515" /><g
           id="g517"><path
             style="color:#000000;fill:#00c558;fill-rule:evenodd;-inkscape-stroke:none"
             d="m 1130.1563,-289.82087 c 0,1.38 -1.12,2.5 -2.5,2.5 -1.38,0 -2.5,-1.12 -2.5,-2.5 0,-1.38 1.15,-2.5 2.5,-2.5 1.38,0 2.5,1.12 2.5,2.5 z"
             sodipodi:nodetypes="sssss"
             id="path516" /><path
             style="color:#000000;fill:#00c558;fill-rule:evenodd;-inkscape-stroke:none"
             d="m 1026.7857,-250.56911 c 0,1.38 -1.12,2.5 -2.5,2.5 -1.38,0 -2.5,-1.12 -2.5,-2.5 0,-1.38 1.15,-2.5 2.5,-2.5 1.38,0 2.5,1.12 2.5,2.5 z"
             sodipodi:nodetypes="sssss"
             id="path517" /></g></g><path
         style="fill:none;stroke:#00a955;stroke-width:2.95;stroke-linecap:butt;stroke-linejoin:miter;stroke-dasharray:1.475, 1.475;stroke-dashoffset:0;stroke-opacity:1"
         d="m 1024.2857,-250.56953 c 10.1679,-5.11146 18.8883,2.56791 27.1358,0.32968 10.3894,-2.81952 8.2125,-16.03083 23.9087,-14.07993 10.2495,1.27391 23.1187,-3.08825 23.1187,-14.59218 0,-11.26131 20.9125,-9.56267 29.2074,-10.90933"
         id="path518"
         sodipodi:nodetypes="csssc" /></g><g
       id="g520"
       transform="rotate(-40.295923,-135.87608,-411.60121)"><path
         style="fill:none;stroke:#00c958;stroke-width:5.065;stroke-linecap:butt;stroke-linejoin:miter;stroke-dasharray:none;stroke-opacity:1;marker-start:url(#Dot);marker-end:url(#Dot)"
         d="m 1231.0126,-333.30637 c 0,0 -16.875,-15.8542 -26.0735,-12.8201 -8.4009,2.7709 -3.5629,21.4506 -12.1515,23.5707 -10.7805,2.6612 -16.3594,-21.0275 -27.2923,-19.0837 -9.8337,1.7484 -7.2578,22.9415 -17.1118,24.5719 -9.6088,1.5898 -23.5286,-17.3071 -23.5286,-17.3071"
         id="path519"
         sodipodi:nodetypes="caaaac" /><path
         style="fill:none;stroke:#00a955;stroke-width:2.95;stroke-linecap:butt;stroke-linejoin:miter;stroke-dasharray:1.475, 1.475;stroke-dashoffset:0;stroke-opacity:1"
         d="m 1231.0126,-333.30637 c 0,0 -16.875,-15.8542 -26.0735,-12.8201 -8.4009,2.7709 -3.5629,21.4506 -12.1515,23.5707 -10.7805,2.6612 -16.3594,-21.0275 -27.2923,-19.0837 -9.8337,1.7484 -7.2578,22.9415 -17.1118,24.5719 -9.6088,1.5898 -23.5286,-17.3071 -23.5286,-17.3071"
         id="path520"
         sodipodi:nodetypes="caaaac" /></g><g
       id="g525"
       transform="rotate(168.25984,1042.9661,-771.96738)"><g
         id="g524"
         transform="translate(277.53971,-391.68045)"><path
           style="color:#000000;fill:#00c958;-inkscape-stroke:none"
           d="m 838.93164,73.589844 c -10.00286,-0.358902 -19.80671,2.411662 -28.63086,6.644531 -9.79636,4.699231 -18.65017,11.413233 -25.68164,19.736328 -3.36635,3.984727 -7.46295,7.327987 -12.10352,9.291017 -3.95168,1.67162 -8.36272,2.36349 -12.79492,2.32031 -8.18765,-0.0797 -16.46795,-2.42828 -25.13086,-3.99414 l -0.88281,4.88672 c 8.33161,1.50598 16.88341,3.98382 25.96484,4.07227 4.97768,0.0485 10.0642,-0.71834 14.7793,-2.7129 5.53136,-2.33984 10.19973,-6.20803 13.96094,-10.66015 6.55426,-7.758234 14.85049,-14.057085 24.03516,-18.462893 8.29001,-3.976649 17.34038,-6.479911 26.30664,-6.158203 z"
           id="path521" /><g
           id="g523"><path
             style="color:#000000;fill:#00c958;fill-rule:evenodd;-inkscape-stroke:none"
             d="m 841.34209,76.070988 c 0,1.38 -1.12,2.5 -2.5,2.5 -1.38,0 -2.5,-1.12 -2.5,-2.5 0,-1.38 1.15,-2.5 2.5,-2.5 1.38,0 2.5,1.12 2.5,2.5 z"
             sodipodi:nodetypes="sssss"
             id="path522" /><path
             style="color:#000000;fill:#00c958;fill-rule:evenodd;-inkscape-stroke:none"
             d="m 736.64858,110.03107 c 0,1.38 -1.12,2.5 -2.5,2.5 -1.38,0 -2.5,-1.12 -2.5,-2.5 0,-1.38 1.15,-2.5 2.5,-2.5 1.38,0 2.5,1.12 2.5,2.5 z"
             sodipodi:nodetypes="sssss"
             id="path523" /></g></g><path
         style="fill:none;stroke:#00a955;stroke-width:2.965;stroke-linecap:butt;stroke-linejoin:miter;stroke-dasharray:1.4825, 1.4825;stroke-dashoffset:0;stroke-opacity:1"
         d="m 734.14858,110.03107 c 8.49726,1.53592 16.91372,3.94976 25.54827,4.03385 4.70494,0.0458 9.4532,-0.68338 13.7866,-2.51647 5.08597,-2.15143 9.46875,-5.75753 13.03254,-9.97596 l 0,0 c 6.79287,-8.040672 15.36757,-14.546689 24.85809,-19.099213 8.55708,-4.104763 17.98344,-6.742594 27.46801,-6.402289"
         id="path524"
         sodipodi:nodetypes="cssc"
         inkscape:path-effect="#path-effect539"
         inkscape:original-d="m 734.14858,110.03107 c 8.31584,1.50313 17.00287,3.95063 25.54827,4.03385 9.33114,0.0909 18.49342,-2.63733 26.81914,-12.49243 13.7789,-16.309987 35.0673,-26.120746 52.3261,-25.501502"
         transform="translate(277.3731,-391.68084)" /></g><g
       id="g529"
       transform="rotate(-11.751638,-3728.3797,118.87514)"><g
         id="g528"><path
           style="color:#000000;fill:#00c558;fill-opacity:0.937255;-inkscape-stroke:none"
           d="m 1127.2266,-292.46875 c -3.6194,0.5876 -11.1163,0.5234 -17.7696,1.74609 -3.3266,0.61135 -6.5222,1.52986 -9.1367,3.33789 -2.6145,1.80804 -4.5547,4.82709 -4.5547,8.47266 0,4.75168 -2.4103,7.67505 -6.2832,9.71484 -3.8729,2.03979 -9.2058,2.79058 -13.8222,2.2168 -4.2843,-0.5325 -7.6728,-0.0419 -10.3594,1.20899 -2.6867,1.25091 -4.5417,3.18273 -6.0137,5.03125 -2.9439,3.69703 -4.4414,6.79212 -8.5683,7.91211 -3.1448,0.85342 -6.9255,-0.23616 -11.5606,-1.27149 -4.6351,-1.03533 -10.2376,-1.80131 -16.0781,1.13477 l 2.4101,4.79297 c 4.3274,-2.17538 8.1692,-1.65834 12.4981,-0.69141 4.3289,0.96693 9.0339,2.59769 14.1367,1.21289 6.2625,-1.69954 8.8704,-6.62033 11.3594,-9.74609 1.2445,-1.56289 2.4376,-2.74415 4.082,-3.50977 1.6444,-0.76562 3.8698,-1.19491 7.4336,-0.75195 5.633,0.70012 11.8583,-0.0942 16.9824,-2.79297 5.1241,-2.69879 9.1485,-7.7087 9.1485,-14.46094 0,-1.98508 0.6744,-2.9758 2.2402,-4.05859 1.5658,-1.0828 4.1183,-1.93463 7.0566,-2.47461 5.8767,-1.07997 12.9827,-0.96946 17.6582,-1.72852 z"
           id="path525" /><g
           id="g527"><path
             style="color:#000000;fill:#00c558;fill-rule:evenodd;-inkscape-stroke:none"
             d="m 1130.1563,-289.82087 c 0,1.38 -1.12,2.5 -2.5,2.5 -1.38,0 -2.5,-1.12 -2.5,-2.5 0,-1.38 1.15,-2.5 2.5,-2.5 1.38,0 2.5,1.12 2.5,2.5 z"
             sodipodi:nodetypes="sssss"
             id="path526" /><path
             style="color:#000000;fill:#00c558;fill-rule:evenodd;-inkscape-stroke:none"
             d="m 1026.7857,-250.56911 c 0,1.38 -1.12,2.5 -2.5,2.5 -1.38,0 -2.5,-1.12 -2.5,-2.5 0,-1.38 1.15,-2.5 2.5,-2.5 1.38,0 2.5,1.12 2.5,2.5 z"
             sodipodi:nodetypes="sssss"
             id="path527" /></g></g><path
         style="fill:none;stroke:#00a955;stroke-width:2.95;stroke-linecap:butt;stroke-linejoin:miter;stroke-dasharray:1.475, 1.475;stroke-dashoffset:0;stroke-opacity:1"
         d="m 1024.2857,-250.56953 c 10.1679,-5.11146 18.8883,2.56791 27.1358,0.32968 10.3894,-2.81952 8.2125,-16.03083 23.9087,-14.07993 10.2495,1.27391 23.1187,-3.08825 23.1187,-14.59218 0,-11.26131 20.9125,-9.56267 29.2074,-10.90933"
         id="path528"
         sodipodi:nodetypes="csssc" /></g><g
       id="g535"
       transform="rotate(168.25984,1042.9661,-771.96738)"><g
         id="g534"
         transform="translate(277.53971,-391.68045)"><path
           style="color:#000000;fill:#00c958;-inkscape-stroke:none"
           d="m 838.93164,73.589844 c -10.00286,-0.358902 -19.80671,2.411662 -28.63086,6.644531 -9.79636,4.699231 -18.65017,11.413233 -25.68164,19.736328 -3.36635,3.984727 -7.46295,7.327987 -12.10352,9.291017 -3.95168,1.67162 -8.36272,2.36349 -12.79492,2.32031 -8.18765,-0.0797 -16.46795,-2.42828 -25.13086,-3.99414 l -0.88281,4.88672 c 8.33161,1.50598 16.88341,3.98382 25.96484,4.07227 4.97768,0.0485 10.0642,-0.71834 14.7793,-2.7129 5.53136,-2.33984 10.19973,-6.20803 13.96094,-10.66015 6.55426,-7.758234 14.85049,-14.057085 24.03516,-18.462893 8.29001,-3.976649 17.34038,-6.479911 26.30664,-6.158203 z"
           id="path531" /><g
           id="g533"><path
             style="color:#000000;fill:#00c958;fill-rule:evenodd;-inkscape-stroke:none"
             d="m 841.34209,76.070988 c 0,1.38 -1.12,2.5 -2.5,2.5 -1.38,0 -2.5,-1.12 -2.5,-2.5 0,-1.38 1.15,-2.5 2.5,-2.5 1.38,0 2.5,1.12 2.5,2.5 z"
             sodipodi:nodetypes="sssss"
             id="path532" /><path
             style="color:#000000;fill:#00c958;fill-rule:evenodd;-inkscape-stroke:none"
             d="m 736.64858,110.03107 c 0,1.38 -1.12,2.5 -2.5,2.5 -1.38,0 -2.5,-1.12 -2.5,-2.5 0,-1.38 1.15,-2.5 2.5,-2.5 1.38,0 2.5,1.12 2.5,2.5 z"
             sodipodi:nodetypes="sssss"
             id="path533" /></g></g><path
         style="fill:none;stroke:#00a955;stroke-width:2.965;stroke-linecap:butt;stroke-linejoin:miter;stroke-dasharray:1.4825, 1.4825;stroke-dashoffset:0;stroke-opacity:1"
         d="m 734.14858,110.03107 c 8.49726,1.53592 16.91372,3.94976 25.54827,4.03385 4.70494,0.0458 9.4532,-0.68338 13.7866,-2.51647 5.08597,-2.15143 9.46875,-5.75753 13.03254,-9.97596 l 0,0 c 6.79287,-8.040672 15.36757,-14.546689 24.85809,-19.099213 8.55708,-4.104763 17.98344,-6.742594 27.46801,-6.402289"
         id="path534"
         sodipodi:nodetypes="cssc"
         inkscape:path-effect="#path-effect543"
         inkscape:original-d="m 734.14858,110.03107 c 8.31584,1.50313 17.00287,3.95063 25.54827,4.03385 9.33114,0.0909 18.49342,-2.63733 26.81914,-12.49243 13.7789,-16.309987 35.0673,-26.120746 52.3261,-25.501502"
         transform="translate(277.3731,-391.68084)" /></g></g></svg>
