<?xml version="1.0" encoding="UTF-8" standalone="no"?>
<!-- Created with Inkscape (http://www.inkscape.org/) -->

<svg
   width="73.351334mm"
   height="81.928879mm"
   viewBox="0 0 73.351334 81.928879"
   version="1.1"
   id="svg1"
   xml:space="preserve"
   sodipodi:docname="logo_spirulina.svg"
   inkscape:version="1.3 (0e150ed6c4, 2023-07-21)"
   xmlns:inkscape="http://www.inkscape.org/namespaces/inkscape"
   xmlns:sodipodi="http://sodipodi.sourceforge.net/DTD/sodipodi-0.dtd"
   xmlns="http://www.w3.org/2000/svg"
   xmlns:svg="http://www.w3.org/2000/svg"><sodipodi:namedview
     id="namedview1"
     pagecolor="#505050"
     bordercolor="#eeeeee"
     borderopacity="1"
     inkscape:showpageshadow="0"
     inkscape:pageopacity="0"
     inkscape:pagecheckerboard="0"
     inkscape:deskcolor="#505050"
     inkscape:document-units="mm"
     inkscape:zoom="1.4142136"
     inkscape:cx="5513.6651"
     inkscape:cy="587.25218"
     inkscape:window-width="1920"
     inkscape:window-height="974"
     inkscape:window-x="-11"
     inkscape:window-y="-11"
     inkscape:window-maximized="1"
     inkscape:current-layer="layer1"
     showgrid="false"
     showguides="true"><inkscape:grid
       id="grid118"
       units="mm"
       originx="-5277.5969"
       originy="-305.63082"
       spacingx="0.99999998"
       spacingy="1"
       empcolor="#0099e5"
       empopacity="0.30196078"
       color="#0099e5"
       opacity="0.14901961"
       empspacing="5"
       dotted="false"
       gridanglex="30"
       gridanglez="30"
       visible="false" /><sodipodi:guide
       position="-154.09537,1098.9045"
       orientation="0,-1"
       id="guide420"
       inkscape:locked="false" /></sodipodi:namedview><defs
     id="defs1" /><g
     inkscape:label="Layer 1"
     inkscape:groupmode="layer"
     id="layer1"
     transform="translate(-1396.3642,-80.86482)"><path
       d="m 1433.0386,80.864832 c -0.3358,0 -0.6685,0.0094 -0.9984,0.0279 -0.3298,0.01851 -0.6566,0.04648 -0.9803,0.0832 -0.3236,0.03672 -0.6441,0.08231 -0.9611,0.136942 -0.3171,0.05463 -0.6308,0.11793 -0.9411,0.19017 -0.3102,0.07224 -0.6172,0.153326 -0.9203,0.242879 -0.3032,0.08955 -0.6024,0.187473 -0.8982,0.294039 -0.2957,0.106566 -0.5879,0.221919 -0.8759,0.345198 -0.288,0.123281 -0.5721,0.254596 -0.8521,0.394292 -0.5601,0.279391 -1.1036,0.591567 -1.6299,0.934826 -0.5263,0.343261 -1.0353,0.717676 -1.5255,1.122412 -0.4901,0.404737 -0.9616,0.839975 -1.4133,1.303797 -0.4517,0.46382 -0.8836,0.956399 -1.2945,1.476912 -0.4109,0.520515 -0.8007,1.068495 -1.1684,1.643311 -0.3678,0.574814 -0.7134,1.176267 -1.0356,1.80299 -0.3223,0.626725 -0.6212,1.279194 -0.8956,1.955437 -0.2744,0.676241 -0.5246,1.376246 -0.7488,2.099613 -0.2242,0.723367 -0.4226,1.470005 -0.5943,2.238106 -0.1716,0.768102 -0.3167,1.557888 -0.4335,2.368331 -0.059,0.407077 -0.089,0.834303 -0.1333,1.251603 h -16.52 c -0.1677,-3e-5 -0.3338,0.0224 -0.494,0.0667 -0.1602,0.0442 -0.3144,0.11025 -0.4584,0.19637 -0.1439,0.0861 -0.2749,0.19088 -0.3896,0.31109 -0.1147,0.12021 -0.2132,0.25583 -0.2925,0.40359 -0.079,0.14781 -0.138,0.30505 -0.1747,0.46716 -0.037,0.1621 -0.051,0.32907 -0.043,0.49661 l 2.5311,53.93572 c 0.015,0.32752 0.056,0.65312 0.1204,0.97359 0.065,0.32046 0.1537,0.63579 0.2667,0.94361 0.1129,0.30771 0.2493,0.60576 0.4072,0.89193 0.1579,0.28618 0.3374,0.56047 0.5374,0.82011 0.2001,0.25974 0.4193,0.50345 0.6558,0.72915 0.2365,0.22571 0.4903,0.43343 0.7591,0.62115 0.2689,0.18775 0.5511,0.35434 0.8444,0.49868 0.2934,0.14434 0.5978,0.26642 0.9106,0.36484 0.3127,0.0983 0.6323,0.17263 0.9555,0.22221 0.3231,0.0496 0.6498,0.0745 0.9777,0.0744 h 54.3181 c 0.3896,2e-5 0.7783,-0.0299 1.1622,-0.0889 0.384,-0.059 0.7632,-0.14709 1.1348,-0.26407 0.3716,-0.11697 0.7332,-0.26202 1.0816,-0.43356 0.3485,-0.17155 0.6838,-0.36961 1.0031,-0.59273 0.3193,-0.22316 0.6208,-0.47017 0.9017,-0.73846 0.2809,-0.26829 0.5412,-0.55787 0.7788,-0.86661 0.2375,-0.30882 0.4508,-0.63481 0.6382,-0.97514 0.1873,-0.34033 0.3488,-0.69501 0.4826,-1.06091 0.1339,-0.36586 0.2393,-0.74106 0.3158,-1.1219 0.077,-0.38084 0.1242,-0.76734 0.1421,-1.15652 l 2.4205,-52.77662 c 0.01,-0.14294 10e-5,-0.28618 -0.029,-0.42685 -0.026,-0.14068 -0.069,-0.27784 -0.1266,-0.40876 -0.058,-0.13077 -0.1308,-0.25441 -0.2171,-0.36845 -0.086,-0.11423 -0.1854,-0.21811 -0.2956,-0.30954 -0.1099,-0.0914 -0.2301,-0.16978 -0.3581,-0.23358 -0.1281,-0.0638 -0.2632,-0.11249 -0.4025,-0.14521 -0.1393,-0.0327 -0.2818,-0.0491 -0.4248,-0.0491 h -16.4569 c -0.038,-0.32608 -0.059,-0.66282 -0.1054,-0.982885 -0.1181,-0.81428 -0.2643,-1.608839 -0.4377,-2.382284 -0.1735,-0.773445 -0.3741,-1.525732 -0.6005,-2.255676 -0.2264,-0.729944 -0.4791,-1.437539 -0.756,-2.121318 -0.277,-0.683777 -0.5783,-1.343745 -0.9033,-1.97869 -0.325,-0.634947 -0.6733,-1.244865 -1.0439,-1.828312 -0.3706,-0.583449 -0.7634,-1.140899 -1.1772,-1.670183 -0.4138,-0.529283 -0.8486,-1.030814 -1.3032,-1.503267 -0.4545,-0.472454 -0.9293,-0.915644 -1.4222,-1.328601 -0.4929,-0.412959 -1.0045,-0.795388 -1.5332,-1.146183 -0.5288,-0.350797 -1.0749,-0.670046 -1.6371,-0.956014 -0.2812,-0.142985 -0.5663,-0.277832 -0.8553,-0.40411 -0.289,-0.126278 -0.5819,-0.243712 -0.8785,-0.35295 -0.2966,-0.109238 -0.5968,-0.209926 -0.9007,-0.301791 -0.3039,-0.09186 -0.6115,-0.174922 -0.9224,-0.24908 -0.3109,-0.07416 -0.625,-0.139735 -0.9426,-0.195854 -0.3176,-0.05612 -0.6383,-0.102814 -0.9622,-0.14056 -0.324,-0.03774 -0.6513,-0.06623 -0.9814,-0.08527 -0.33,-0.01904 -0.6631,-0.02894 -0.9989,-0.02894 z m 0,4.864302 c 0.5446,2e-6 1.0737,0.02756 1.587,0.08165 0.5133,0.05409 1.0108,0.134879 1.4924,0.241846 0.4816,0.106965 0.9473,0.239793 1.3968,0.398425 0.4496,0.158632 0.8831,0.342818 1.3002,0.551904 0.4171,0.209086 0.8177,0.443437 1.202,0.701766 0.3843,0.258329 0.7521,0.541133 1.1033,0.847494 0.3512,0.306359 0.6859,0.636424 1.0036,0.989603 0.3176,0.353181 0.6184,0.729308 0.9022,1.128097 0.2839,0.398788 0.5509,0.819785 0.8005,1.262972 0.2496,0.443185 0.4816,0.908374 0.6966,1.394747 0.215,0.486371 0.4132,0.994042 0.5932,1.522387 0.1801,0.528347 0.3426,1.077302 0.4874,1.646412 0.1447,0.569109 0.2717,1.158672 0.3808,1.767334 0.1091,0.60866 0.2003,1.236599 0.2734,1.883609 0.023,0.2039 0.033,0.42179 0.052,0.62941 h -26.3473 c 0.014,-0.1478 0.02,-0.30413 0.036,-0.4501 0.071,-0.649553 0.1585,-1.281197 0.2641,-1.893421 0.1055,-0.612223 0.2285,-1.205208 0.3689,-1.778703 0.1404,-0.573493 0.2983,-1.12751 0.4734,-1.66088 0.1751,-0.533371 0.3672,-1.046038 0.5767,-1.537891 0.2095,-0.491852 0.4362,-0.962859 0.6801,-1.4118 0.2438,-0.44894 0.5049,-0.875906 0.7829,-1.280542 0.2779,-0.404634 0.5732,-0.786732 0.8852,-1.145666 0.3119,-0.358936 0.6408,-0.694817 0.9865,-1.006657 0.3457,-0.311842 0.7081,-0.599643 1.0872,-0.862997 0.3793,-0.263352 0.7754,-0.502247 1.1881,-0.715718 0.4127,-0.213471 0.8423,-0.401595 1.2883,-0.56379 0.4459,-0.162195 0.9085,-0.298203 1.3875,-0.407727 0.479,-0.109525 0.9743,-0.192587 1.4862,-0.248047 0.5119,-0.05546 1.0403,-0.08371 1.5849,-0.08372 z m -0.1524,24.979866 c 0.523,0 1.0439,0.0214 1.5627,0.0636 0.5188,0.0422 1.0357,0.10529 1.5503,0.18965 0.5146,0.0844 1.027,0.18972 1.5373,0.31626 0.5104,0.12654 1.0189,0.27415 1.525,0.44287 0.523,0.16871 1.033,0.36702 1.5307,0.59479 0.4977,0.22777 0.9828,0.48523 1.4552,0.77205 0.4724,0.28682 0.9321,0.60291 1.3792,0.94878 0.4471,0.34587 0.882,0.72162 1.3038,1.12654 l -2.1259,3.34037 c -0.135,-0.18559 -0.2757,-0.36403 -0.4222,-0.53485 -0.1466,-0.17083 -0.2992,-0.33383 -0.4574,-0.4899 -0.1581,-0.15606 -0.3222,-0.30518 -0.4919,-0.44648 -0.1698,-0.1413 -0.3453,-0.27499 -0.5266,-0.40153 -0.1814,-0.12653 -0.3688,-0.24582 -0.5617,-0.3576 -0.193,-0.11177 -0.3918,-0.21614 -0.5964,-0.31316 -0.4091,-0.19402 -0.841,-0.35853 -1.2966,-0.49351 -0.4386,-0.13497 -0.8651,-0.25525 -1.2784,-0.3607 -0.4134,-0.10545 -0.814,-0.19589 -1.202,-0.27182 -0.3881,-0.0759 -0.7633,-0.13705 -1.1261,-0.18345 -0.3627,-0.0464 -0.7131,-0.0782 -1.0505,-0.0951 -0.2869,0 -0.5776,0.0149 -0.8728,0.0444 -0.2953,0.0295 -0.595,0.0738 -0.8987,0.13281 -0.3037,0.059 -0.6113,0.13311 -0.9235,0.22169 -0.3121,0.0886 -0.6287,0.19144 -0.9493,0.30954 -0.3036,0.1181 -0.6295,0.26923 -0.9617,0.4439 -0.3322,0.17467 -0.6707,0.37332 -0.9983,0.58653 -0.3277,0.21321 -0.6448,0.44117 -0.9349,0.67489 -0.29,0.23373 -0.5527,0.4728 -0.772,0.70901 -0.2025,0.21933 -0.3799,0.4579 -0.5318,0.7152 -0.1518,0.25729 -0.278,0.53363 -0.3793,0.82889 -0.1012,0.29525 -0.1772,0.60936 -0.2279,0.94258 -0.051,0.33321 -0.076,0.6856 -0.076,1.05678 0,0.38805 0.027,0.7588 0.082,1.11311 0.055,0.3543 0.1374,0.69178 0.247,1.01234 0.1097,0.32056 0.2464,0.62424 0.4109,0.91106 0.1645,0.28681 0.3563,0.55721 0.5757,0.81028 0.1096,0.1181 0.2317,0.22889 0.3632,0.33383 0.1316,0.10494 0.273,0.20362 0.4222,0.29766 0.2985,0.18807 0.6281,0.35673 0.9726,0.51469 0.689,0.31594 1.4372,0.5898 2.112,0.89349 0.7086,0.30369 1.4258,0.59892 2.1513,0.88573 0.7255,0.28682 1.4591,0.56515 2.2014,0.8351 0.4893,0.15184 0.9704,0.31187 1.4428,0.48059 0.4724,0.16871 0.9361,0.34616 1.3917,0.53175 0.4555,0.18558 0.9028,0.37941 1.3415,0.58187 0.4386,0.20246 0.8691,0.41371 1.2909,0.63304 0.4386,0.20246 0.8561,0.42362 1.2526,0.66404 0.3965,0.24042 0.7717,0.49987 1.126,0.77825 0.3543,0.27838 0.6873,0.57559 0.9994,0.89193 0.3122,0.31635 0.6034,0.65184 0.8734,1.00614 0.2868,0.33744 0.5773,0.7133 0.8516,1.12293 0.1372,0.20482 0.2703,0.41801 0.3969,0.63924 0.1266,0.22123 0.2469,0.45024 0.3581,0.68678 0.1112,0.23654 0.2131,0.48047 0.3039,0.73122 0.091,0.25075 0.1702,0.50869 0.2356,0.77256 0.065,0.26388 0.1167,0.53388 0.1519,0.80977 0.035,0.2759 0.054,0.55758 0.054,0.8444 0,0.57363 -0.032,1.13425 -0.095,1.68258 -0.063,0.54833 -0.1582,1.08412 -0.2847,1.60714 -0.1266,0.52302 -0.2846,1.03346 -0.4744,1.53117 -0.1898,0.49772 -0.411,0.9828 -0.6641,1.45521 -0.1265,0.22777 -0.2612,0.44994 -0.4036,0.66611 -0.1423,0.21617 -0.2924,0.4264 -0.4506,0.63097 -0.1581,0.20457 -0.3242,0.40338 -0.4981,0.59634 -0.174,0.19297 -0.3559,0.37984 -0.5457,0.56121 -0.1898,0.18137 -0.3877,0.35733 -0.5933,0.5271 -0.2056,0.16977 -0.4193,0.33379 -0.6408,0.49196 -0.4429,0.31634 -0.917,0.60907 -1.4231,0.87902 -0.2447,0.12653 -0.5078,0.24296 -0.7866,0.34985 -0.2787,0.10688 -0.5736,0.20468 -0.8816,0.293 -0.3079,0.0883 -0.6294,0.16737 -0.9617,0.23823 -0.3322,0.0709 -0.6752,0.13309 -1.0268,0.18758 -0.7032,0.109 -1.4401,0.18657 -2.191,0.23668 -0.751,0.0501 -1.5156,0.0729 -2.2748,0.0729 -0.5737,0 -1.1537,-0.0253 -1.74,-0.076 -0.5863,-0.0506 -1.1792,-0.12614 -1.7782,-0.22737 -0.5989,-0.10123 -1.2038,-0.22798 -1.8154,-0.37983 -0.6116,-0.15184 -1.2299,-0.32877 -1.8541,-0.53123 -0.3121,-0.10967 -0.6168,-0.22747 -0.9142,-0.35295 -0.2973,-0.12548 -0.5871,-0.25868 -0.8697,-0.39998 -0.2826,-0.1413 -0.5579,-0.29091 -0.8258,-0.44803 -0.2678,-0.15712 -0.5283,-0.32213 -0.7813,-0.49506 -0.2531,-0.17293 -0.4986,-0.35333 -0.7369,-0.54209 -0.2383,-0.18875 -0.4695,-0.38557 -0.693,-0.59014 -0.2236,-0.20457 -0.4398,-0.4173 -0.6486,-0.63769 -0.2087,-0.22038 -0.41,-0.44851 -0.6041,-0.68471 l 2.2268,-3.13831 c 0.3374,0.3543 0.6898,0.69178 1.0568,1.01234 0.3669,0.32056 0.7486,0.62424 1.1451,0.91106 0.3965,0.28681 0.808,0.55669 1.2341,0.80977 0.426,0.25307 0.8663,0.48966 1.3218,0.709 0.4724,0.20246 0.9516,0.37939 1.4366,0.53123 0.4851,0.15185 0.9761,0.27859 1.4739,0.37982 0.4977,0.10123 1.0016,0.17676 1.512,0.22738 0.5104,0.0506 1.0273,0.076 1.5503,0.076 0.388,0 0.7698,-0.0124 1.1451,-0.0377 0.3754,-0.0253 0.7442,-0.0631 1.107,-0.11369 0.3627,-0.0506 0.7196,-0.11425 1.0697,-0.19017 0.35,-0.0759 0.6935,-0.16439 1.0309,-0.26562 0.3543,-0.1181 0.7313,-0.24621 1.111,-0.38912 0.3798,-0.14291 0.7624,-0.30049 1.1281,-0.47697 0.3658,-0.17649 0.7146,-0.37183 1.0269,-0.59066 0.1561,-0.10942 0.3033,-0.22511 0.4387,-0.34675 0.1354,-0.12165 0.2593,-0.2495 0.369,-0.38448 0.2193,-0.26994 0.4111,-0.56318 0.5756,-0.87953 0.1645,-0.31634 0.3017,-0.6558 0.4114,-1.01854 0.1096,-0.36274 0.1916,-0.74842 0.2465,-1.15755 0.055,-0.40914 0.082,-0.84155 0.082,-1.29708 0,-0.2362 -0.018,-0.46768 -0.052,-0.69402 -0.034,-0.22633 -0.084,-0.44764 -0.1477,-0.663 -0.063,-0.21537 -0.1398,-0.42509 -0.2274,-0.62839 -0.088,-0.2033 -0.1861,-0.4 -0.293,-0.59014 -0.107,-0.19014 -0.2223,-0.37344 -0.3437,-0.54933 -0.1213,-0.17588 -0.249,-0.34434 -0.3798,-0.50487 -0.2617,-0.32107 -0.5372,-0.61044 -0.8072,-0.86352 -0.2531,-0.25307 -0.5249,-0.49363 -0.816,-0.7214 -0.291,-0.22777 -0.6011,-0.44298 -0.9301,-0.64544 -0.329,-0.20246 -0.6769,-0.39232 -1.0439,-0.56947 -0.367,-0.17716 -0.7531,-0.34167 -1.1581,-0.49351 -0.7761,-0.33744 -1.5772,-0.65801 -2.404,-0.9617 -0.8267,-0.30369 -1.679,-0.59047 -2.5564,-0.86041 -0.7255,-0.23621 -1.4524,-0.47524 -2.1642,-0.72657 -0.7118,-0.25134 -1.4082,-0.51494 -2.0733,-0.79944 -0.3325,-0.14225 -0.6573,-0.28946 -0.972,-0.44338 -0.3146,-0.15393 -0.6194,-0.3143 -0.9121,-0.48214 -0.2926,-0.16785 -0.5732,-0.34359 -0.8397,-0.52762 -0.2665,-0.18403 -0.5188,-0.37632 -0.755,-0.57878 -0.2278,-0.20246 -0.4415,-0.41568 -0.6408,-0.63923 -0.1993,-0.22355 -0.3842,-0.45765 -0.555,-0.70229 -0.1708,-0.24464 -0.3274,-0.4996 -0.4697,-0.76532 -0.1424,-0.26573 -0.2706,-0.54208 -0.3845,-0.82889 -0.1139,-0.28682 -0.2133,-0.58455 -0.2987,-0.89246 -0.085,-0.3079 -0.1565,-0.62598 -0.2134,-0.95498 -0.057,-0.32899 -0.1,-0.66845 -0.1282,-1.01854 -0.028,-0.35009 -0.043,-0.71093 -0.043,-1.0821 0,-0.5399 0.032,-1.06275 0.095,-1.5689 0.063,-0.50615 0.1582,-0.99572 0.2847,-1.46813 0.1266,-0.4724 0.2846,-0.92766 0.4744,-1.36632 0.1898,-0.43867 0.411,-0.86064 0.6641,-1.26556 0.135,-0.20246 0.2839,-0.4038 0.4449,-0.60255 0.1611,-0.19874 0.3343,-0.39477 0.5173,-0.58756 0.366,-0.38556 0.7715,-0.75717 1.2004,-1.10536 0.4289,-0.34818 0.8813,-0.67306 1.34,-0.96583 0.4588,-0.29277 0.9242,-0.55323 1.3798,-0.77256 0.4555,-0.2362 0.9257,-0.44297 1.4107,-0.62012 0.4851,-0.17715 0.9851,-0.32476 1.4997,-0.44286 0.5146,-0.11811 1.0439,-0.20657 1.588,-0.26562 0.5441,-0.059 1.1027,-0.0889 1.6764,-0.0889 z"
       style="opacity:0.515306;fill:#f9f9f9;stroke-width:2.067;stroke-linejoin:round"
       id="path9" /></g></svg>
